<svg width="25" height="29" viewBox="0 0 25 29" fill="none" xmlns="http://www.w3.org/2000/svg"><g clip-path="url(#a)" fill="#000"><path d="M23.328 10.059h-.675V6.8a.46.46 0 0 0-.006-.062.543.543 0 0 0-.131-.357L17.096.189a.54.54 0 0 0-.11-.092l-.042-.026a.58.58 0 0 0-.109-.046l-.03-.01A.553.553 0 0 0 16.679 0H3.354a1.1 1.1 0 0 0-1.1 1.1v8.956h-.678a1.576 1.576 0 0 0-1.58 1.579v8.2a1.577 1.577 0 0 0 1.576 1.576h.675v5.611a1.1 1.1 0 0 0 1.1 1.1h18.2a1.1 1.1 0 0 0 1.1-1.1v-5.614h.675a1.577 1.577 0 0 0 1.576-1.576v-8.2a1.576 1.576 0 0 0-1.57-1.573ZM3.354 1.1h12.774v5.645a.552.552 0 0 0 .551.551h4.871v2.762H3.35L3.354 1.1Zm12.252 12.849a2.276 2.276 0 0 1-.655 1.691 3.3 3.3 0 0 1-2.315.751 4.03 4.03 0 0 1-.55-.032v2.548h-1.6v-7.03c.72-.11 1.448-.159 2.177-.148.77-.061 1.537.14 2.177.571a2.082 2.082 0 0 1 .766 1.649Zm-12.652 1.48c.011-2.368 1.734-3.721 4.07-3.721A4.912 4.912 0 0 1 9 12.056l-.338 1.29a3.94 3.94 0 0 0-1.66-.307 2.157 2.157 0 0 0-2.357 2.3 2.334 2.334 0 0 0 3.034 2.23v-1.485h-1.1v-1.258h2.653v3.752a7.96 7.96 0 0 1-2.378.4 3.967 3.967 0 0 1-2.9-.962 3.448 3.448 0 0 1-1-2.587Zm18.6 11.29h-18.2v-5.311h18.2v5.311Zm-1.464-7.813-.645-1.29c-.264-.5-.433-.867-.634-1.279h-.021c-.148.412-.328.782-.55 1.279l-.592 1.29h-1.842l2.061-3.606-1.987-3.519h1.85l.624 1.3c.211.433.37.782.539 1.184h.022c.169-.455.306-.772.486-1.184l.6-1.3h1.839l-2.007 3.479 2.114 3.647h-1.86l.003-.001Z"/><path d="M12.753 12.945a2.72 2.72 0 0 0-.666.064v2.1c.178.034.358.049.539.043.856 0 1.385-.434 1.385-1.163-.001-.653-.458-1.044-1.258-1.044Z"/></g><defs><clipPath id="a"><path fill="#fff" d="M0 0h24.904v28.121H0z"/></clipPath></defs></svg>