<svg width="32" height="32" viewBox="0 0 32 32" fill="none" xmlns="http://www.w3.org/2000/svg"><path d="m13.107 11.72-2.44.888v4.725H8v-6.6h.02l7.024-2.557c.325-.124.68-.187 1.043-.175a3.488 3.488 0 0 1 3.236 2.427c.248.777.474 1.303.68 1.575a6.657 6.657 0 0 0 5.33 2.664v2.666a9.315 9.315 0 0 1-7.202-3.396l-.775 4.396L20 20.893v9.774h-2.667v-7.982L14.6 20.036l-1.263 5.73-9.192-1.62.464-2.626 6.566 1.157 1.932-10.957ZM18 7.333A2.667 2.667 0 1 1 18 2a2.667 2.667 0 0 1 0 5.333Z" fill="#000"/></svg>