<svg width="109" height="57" viewBox="0 0 109 57" fill="none" xmlns="http://www.w3.org/2000/svg"><path d="M.32 4.648h10.912v1.776H.32V4.648ZM4.72 6.2h2.128V15H4.72V6.2Zm8.059 8.8V4.648h7.024c.8 0 1.493.112 2.08.336.597.213 1.061.555 1.392 1.024.33.459.496 1.05.496 1.776 0 .49-.085.907-.256 1.248-.17.341-.41.619-.72.832a3.48 3.48 0 0 1-1.04.496 6.653 6.653 0 0 1-1.264.208l-.224-.128c.747.01 1.36.075 1.84.192.48.107.837.31 1.072.608.245.288.368.72.368 1.296V15h-2.128v-2.32c0-.395-.07-.699-.208-.912-.139-.224-.39-.379-.752-.464-.352-.085-.864-.128-1.536-.128h-4.016V15h-2.128Zm2.128-5.488h4.896c.597 0 1.05-.144 1.36-.432.32-.288.48-.677.48-1.168 0-.47-.16-.827-.48-1.072-.31-.245-.763-.368-1.36-.368h-4.896v3.04Zm12.707 3.232v-1.776h6.848v1.776h-6.848ZM25.038 15l4.864-10.352h2.304L37.118 15h-2.32l-4.256-9.328h1.024L27.342 15h-2.304ZM38.927 4.648h2.128V15h-2.128V4.648Zm7.011 0v8.576h6.88V15H43.81V4.648h2.128ZM11.728 31.888l-.672.272v-8.512h2.128V34h-2.128l-8.368-8.176.672-.272V34H1.232V23.648H3.36l8.368 8.24Zm10.086 2.32c-1.376 0-2.555-.213-3.536-.64-.97-.437-1.717-1.056-2.24-1.856-.512-.8-.768-1.76-.768-2.88 0-1.13.256-2.096.768-2.896.523-.8 1.27-1.413 2.24-1.84.981-.437 2.16-.656 3.536-.656 1.387 0 2.565.219 3.536.656.97.427 1.712 1.04 2.224 1.84.522.8.784 1.765.784 2.896 0 1.12-.262 2.08-.784 2.88-.512.8-1.254 1.419-2.224 1.856-.97.427-2.15.64-3.536.64Zm0-1.84c.853 0 1.6-.128 2.24-.384.65-.256 1.157-.645 1.52-1.168.373-.523.56-1.184.56-1.984s-.187-1.461-.56-1.984c-.363-.523-.87-.912-1.52-1.168-.64-.267-1.387-.4-2.24-.4-.843 0-1.595.133-2.256.4-.662.256-1.179.645-1.552 1.168-.373.523-.56 1.184-.56 1.984s.186 1.461.56 1.984c.373.523.89.912 1.552 1.168.661.256 1.413.384 2.256.384Zm20.701-2.096c-.096.832-.39 1.541-.88 2.128-.49.587-1.157 1.035-2 1.344-.843.31-1.845.464-3.008.464-.97 0-1.861-.112-2.672-.336-.8-.224-1.493-.56-2.08-1.008a4.64 4.64 0 0 1-1.344-1.664c-.32-.672-.48-1.456-.48-2.352 0-.896.16-1.68.48-2.352a4.604 4.604 0 0 1 1.344-1.68c.587-.459 1.28-.8 2.08-1.024.81-.235 1.702-.352 2.672-.352 1.163 0 2.165.16 3.008.48.854.32 1.526.779 2.016 1.376.49.587.779 1.301.864 2.144h-2.112a2.677 2.677 0 0 0-.704-1.152c-.32-.33-.736-.581-1.248-.752-.512-.17-1.12-.256-1.824-.256-.875 0-1.643.139-2.304.416-.661.267-1.173.667-1.536 1.2-.362.523-.544 1.173-.544 1.952 0 .768.181 1.413.544 1.936.363.523.875.923 1.536 1.2.661.267 1.43.4 2.304.4.704 0 1.307-.085 1.808-.256.512-.17.928-.416 1.248-.736.33-.32.57-.693.72-1.12h2.112Zm.852-6.624h10.912v1.776H43.367v-1.776Zm4.4 1.552h2.128V34h-2.128v-8.8Zm17.563 4.224v-5.776h2.128v6c0 .683-.102 1.28-.304 1.792a3.48 3.48 0 0 1-.832 1.296c-.363.352-.79.64-1.28.864a6.529 6.529 0 0 1-1.584.464 10.7 10.7 0 0 1-1.792.144c-.65 0-1.27-.048-1.856-.144a6.787 6.787 0 0 1-1.616-.464 4.346 4.346 0 0 1-1.248-.864 3.765 3.765 0 0 1-.832-1.296c-.192-.512-.288-1.11-.288-1.792v-6h2.128v5.776c0 .81.16 1.43.48 1.856.32.416.757.704 1.312.864.565.15 1.205.224 1.92.224.693 0 1.312-.075 1.856-.224.554-.16.992-.448 1.312-.864.33-.427.496-1.045.496-1.856ZM69.92 34V23.648h7.023c.8 0 1.494.112 2.08.336.598.213 1.062.555 1.392 1.024.331.459.496 1.05.496 1.776 0 .49-.085.907-.255 1.248-.171.341-.411.619-.72.832a3.479 3.479 0 0 1-1.04.496 6.653 6.653 0 0 1-1.264.208l-.225-.128c.747.01 1.36.075 1.84.192.48.107.838.31 1.073.608.245.288.368.72.368 1.296V34h-2.129v-2.32c0-.395-.069-.699-.207-.912-.14-.224-.39-.379-.752-.464-.352-.085-.864-.128-1.536-.128h-4.016V34h-2.129Zm2.127-5.488h4.897c.597 0 1.05-.144 1.36-.432.32-.288.48-.677.48-1.168 0-.47-.16-.827-.48-1.072-.31-.245-.763-.368-1.36-.368h-4.897v3.04Zm21.587 3.376-.672.272v-8.512h2.128V34h-2.128l-8.368-8.176.672-.272V34h-2.128V23.648h2.128l8.368 8.24Zm6.054-2.208v2.544h7.984V34H97.56V23.648h10.096v1.776h-7.968V28h6.528v1.68h-6.528ZM.32 42.648h10.912v1.776H.32v-1.776Zm4.4 1.552h2.128V53H4.72v-8.8Zm13.422 9.008c-1.376 0-2.555-.213-3.536-.64-.97-.437-1.717-1.056-2.24-1.856-.512-.8-.768-1.76-.768-2.88 0-1.13.256-2.096.768-2.896.523-.8 1.27-1.413 2.24-1.84.981-.437 2.16-.656 3.536-.656 1.387 0 2.565.219 3.536.656.97.427 1.712 1.04 2.224 1.84.523.8.784 1.765.784 2.896 0 1.12-.261 2.08-.784 2.88-.512.8-1.253 1.419-2.224 1.856-.97.427-2.15.64-3.536.64Zm0-1.84c.853 0 1.6-.128 2.24-.384.65-.256 1.157-.645 1.52-1.168.373-.523.56-1.184.56-1.984s-.187-1.461-.56-1.984c-.363-.523-.87-.912-1.52-1.168-.64-.267-1.387-.4-2.24-.4-.843 0-1.595.133-2.256.4-.661.256-1.179.645-1.552 1.168-.373.523-.56 1.184-.56 1.984s.187 1.461.56 1.984c.373.523.89.912 1.552 1.168.661.256 1.413.384 2.256.384Zm18.125-2.944v-5.776h2.128v6c0 .683-.101 1.28-.304 1.792a3.48 3.48 0 0 1-.832 1.296c-.362.352-.79.64-1.28.864a6.529 6.529 0 0 1-1.584.464 10.7 10.7 0 0 1-1.792.144c-.65 0-1.27-.048-1.856-.144a6.787 6.787 0 0 1-1.616-.464 4.346 4.346 0 0 1-1.248-.864 3.765 3.765 0 0 1-.832-1.296c-.192-.512-.288-1.11-.288-1.792v-6h2.128v5.776c0 .81.16 1.43.48 1.856.32.416.758.704 1.312.864.566.15 1.206.224 1.92.224.694 0 1.312-.075 1.856-.224.555-.16.992-.448 1.312-.864.33-.427.496-1.045.496-1.856Zm16.67.848c-.096.832-.39 1.541-.88 2.128-.49.587-1.157 1.035-2 1.344-.843.31-1.845.464-3.008.464-.97 0-1.861-.112-2.672-.336-.8-.224-1.493-.56-2.08-1.008a4.64 4.64 0 0 1-1.344-1.664c-.32-.672-.48-1.456-.48-2.352 0-.896.16-1.68.48-2.352a4.604 4.604 0 0 1 1.344-1.68c.587-.459 1.28-.8 2.08-1.024.81-.235 1.701-.352 2.672-.352 1.163 0 2.165.16 3.008.48.853.32 1.525.779 2.016 1.376.49.587.779 1.301.864 2.144h-2.112a2.678 2.678 0 0 0-.704-1.152c-.32-.33-.736-.581-1.248-.752-.512-.17-1.12-.256-1.824-.256-.875 0-1.643.139-2.304.416-.661.267-1.173.667-1.536 1.2-.363.523-.544 1.173-.544 1.952 0 .768.181 1.413.544 1.936.363.523.875.923 1.536 1.2.661.267 1.43.4 2.304.4.704 0 1.307-.085 1.808-.256.512-.17.928-.416 1.248-.736.33-.32.57-.693.72-1.12h2.112Zm3.948-2.352h8.208v1.776h-8.208V46.92Zm7.856-4.272h2.128V53h-2.128V42.648Zm-9.728 0h2.128V53h-2.128V42.648Zm20.473 10.56c-1.376 0-2.555-.213-3.536-.64-.97-.437-1.718-1.056-2.24-1.856-.512-.8-.768-1.76-.768-2.88 0-1.13.256-2.096.768-2.896.522-.8 1.27-1.413 2.24-1.84.981-.437 2.16-.656 3.536-.656 1.386 0 2.565.219 3.536.656.97.427 1.712 1.04 2.224 1.84.522.8.784 1.765.784 2.896 0 1.12-.262 2.08-.784 2.88-.512.8-1.254 1.419-2.224 1.856-.97.427-2.15.64-3.536.64Zm0-1.84c.853 0 1.6-.128 2.24-.384.65-.256 1.157-.645 1.52-1.168.373-.523.56-1.184.56-1.984s-.187-1.461-.56-1.984c-.363-.523-.87-.912-1.52-1.168-.64-.267-1.387-.4-2.24-.4-.843 0-1.595.133-2.256.4-.662.256-1.179.645-1.552 1.168-.374.523-.56 1.184-.56 1.984s.186 1.461.56 1.984c.373.523.89.912 1.552 1.168.661.256 1.413.384 2.256.384Zm8.925-8.72h2.128V53h-2.128V42.648Zm4.195 6.864h2.16c.043.363.209.693.496.992.3.288.689.517 1.168.688.48.16 1.02.24 1.616.24.544 0 .992-.059 1.344-.176.353-.117.614-.283.784-.496.171-.213.256-.47.256-.768 0-.288-.106-.507-.32-.656-.213-.16-.549-.288-1.007-.384a22.098 22.098 0 0 0-1.808-.32 12.72 12.72 0 0 1-1.665-.352 6.16 6.16 0 0 1-1.391-.608 3.044 3.044 0 0 1-.945-.896c-.224-.363-.335-.79-.335-1.28 0-.608.17-1.141.511-1.6.353-.459.87-.816 1.552-1.072.683-.256 1.52-.384 2.512-.384 1.494 0 2.64.32 3.44.96.811.63 1.206 1.499 1.184 2.608h-2.08c-.042-.63-.309-1.083-.8-1.36-.48-.277-1.088-.416-1.824-.416-.682 0-1.247.101-1.695.304-.438.203-.656.55-.656 1.04 0 .192.053.363.16.512.106.139.287.261.543.368.257.107.603.208 1.04.304.438.096.982.192 1.632.288.609.085 1.158.203 1.648.352.502.139.928.325 1.28.56.363.224.64.512.832.864.192.352.288.784.288 1.296 0 .63-.165 1.179-.495 1.648-.32.459-.822.816-1.505 1.072-.671.256-1.546.384-2.623.384-.769 0-1.446-.08-2.032-.24a5.695 5.695 0 0 1-1.52-.672 4.397 4.397 0 0 1-1.04-.912 3.411 3.411 0 0 1-.577-.992c-.106-.33-.149-.63-.127-.896Z" fill="#fff"/></svg>